<svg version="1.1" xmlns="http://www.w3.org/2000/svg" xmlns:xlink="http://www.w3.org/1999/xlink" x="0px" y="0px" viewBox="0 0 512 512" style="enable-background:new 0 0 512 512;" xml:space="preserve">
<style type="text/css">
	.st0{fill:#126A75;}
	.st1{display:none;}
	.st2{display:inline;fill:#FFFFFF;}
	.st3{fill:#FFFFFF;}
	.st4{fill:#FFFFFF;stroke:#FFFFFF;stroke-width:10;stroke-miterlimit:10;}
</style>
<g id="Layer_1">
<g id="Layer_2_background">
<g>
<circle class="st0" cx="256.0887" cy="255.7101" r="239.3491" id="id_110" style="fill: rgb(0, 143, 252);"></circle>
</g>
</g>
</g>
<g id="Layer_2" class="st1">
<path class="st2" d="M416.8333,220.7163h-6.1667v-24.6667c0.0034-10.2139-8.2739-18.4966-18.4877-18.4999
		c-2.105-0.0007-4.1946,0.358-6.1789,1.0606V152.883c-0.0119-10.2123-8.2877-18.4881-18.5-18.5h-12.3333
		c-10.2123,0.0119-18.4881,8.2877-18.5,18.5v67.8333H317.106c-3.3967-9.6253-13.9531-14.6746-23.5784-11.2779
		c-0.2282,0.0805-0.4549,0.1656-0.6797,0.255c-2.6735-9.8511-12.8267-15.6698-22.6779-12.9963
		c-0.675,0.1832-1.339,0.4045-1.9888,0.6629c-2.673-9.8517-12.8262-15.6713-22.678-12.9983
		c-2.7854,0.7557-5.355,2.1532-7.5032,4.0805c-7.6003-6.8183-19.2888-6.1844-26.1071,1.4158
		c-3.046,3.3953-4.7293,7.7968-4.7262,12.3582v6.1667H201c-7.8362,0.0101-14.8188,4.9483-17.4393,12.3333H164V152.883
		c-0.0119-10.2123-8.2877-18.4881-18.5-18.5h-12.3333c-10.2123,0.0119-18.4881,8.2877-18.5,18.5v25.7273
		c-9.6281-3.4092-20.1969,1.6323-23.6061,11.2604c-0.7026,1.9843-1.0613,4.0739-1.0606,6.1789v24.6667h-6.1667
		c-10.2125,0.0115-18.4885,8.2875-18.5,18.5v12.3333c0.0115,10.2125,8.2875,18.4885,18.5,18.5H90v24.6667
		c-0.0034,10.2139,8.2739,18.4966,18.4877,18.4999c2.105,0.0007,4.1946-0.358,6.1789-1.0606v25.7273
		c0.0119,10.2123,8.2877,18.4881,18.5,18.5H145.5c10.2123-0.0119,18.4881-8.2877,18.5-18.5v-67.8333h18.5v18.5
		c0,1.2176,0.3605,2.4079,1.036,3.4209l23.6307,35.446v96.7997c0,3.4058,2.7609,6.1667,6.1667,6.1667h86.3333
		c3.4058,0,6.1667-2.7609,6.1667-6.1667v-97.6646l12.0165-36.0504c0.2099-0.6293,0.3169-1.2884,0.3168-1.9517v-18.5h18.5v67.8333
		c0.0119,10.2123,8.2877,18.4881,18.5,18.5H367.5c10.2123-0.0119,18.4881-8.2877,18.5-18.5v-25.7273
		c9.6281,3.4091,20.1969-1.6323,23.6061-11.2604c0.7026-1.9843,1.0613-4.0739,1.0606-6.1789v-24.6667h6.1667
		c10.2125-0.0115,18.4885-8.2875,18.5-18.5v-12.3333C435.3218,229.0038,427.0458,220.7278,416.8333,220.7163z M299.6667,220.7163
		c3.4042,0.0038,6.1628,2.7625,6.1667,6.1667v24.6667c0,3.4057-2.7609,6.1667-6.1667,6.1667c-3.4057,0-6.1667-2.7609-6.1667-6.1667
		V226.883C293.5038,223.4788,296.2625,220.7201,299.6667,220.7163z M275,208.383c3.4042,0.0038,6.1628,2.7625,6.1667,6.1667v37
		c0,3.4057-2.7609,6.1667-6.1667,6.1667s-6.1667-2.7609-6.1667-6.1667v-37C268.8372,211.1455,271.5958,208.3868,275,208.383z
		 M250.3333,196.0497c3.4042,0.0038,6.1628,2.7625,6.1667,6.1667v49.3333c0,3.4057-2.7609,6.1667-6.1667,6.1667
		c-3.4057,0-6.1667-2.7609-6.1667-6.1667v-49.3333C244.1705,198.8121,246.9292,196.0535,250.3333,196.0497z M231.8333,251.5497
		c0,3.4057-2.7609,6.1667-6.1667,6.1667c-3.4058,0-6.1667-2.7609-6.1667-6.1667v-6.1667h6.1667
		c2.101,0.0009,4.1867-0.3578,6.1667-1.0607V251.5497z M219.5,202.2163c0-3.4057,2.7609-6.1667,6.1667-6.1667
		c3.4057,0,6.1667,2.7609,6.1667,6.1667v6.1667H219.5V202.2163z M83.8333,257.7163c-3.4042-0.0038-6.1628-2.7625-6.1667-6.1667
		v-12.3333c0.0038-3.4042,2.7625-6.1628,6.1667-6.1667H90v24.6667H83.8333z M108.5,300.883
		c-3.4042-0.0038-6.1628-2.7625-6.1667-6.1667v-98.6667c0-3.4058,2.7609-6.1667,6.1667-6.1667s6.1667,2.7609,6.1667,6.1667v98.6667
		C114.6628,298.1205,111.9042,300.8792,108.5,300.883z M151.6667,337.883c-0.0038,3.4042-2.7625,6.1628-6.1667,6.1667h-12.3333
		c-3.4042-0.0038-6.1628-2.7625-6.1667-6.1667v-185c0.0038-3.4042,2.7625-6.1628,6.1667-6.1667H145.5
		c3.4042,0.0038,6.1628,2.7625,6.1667,6.1667V337.883z M164,257.7163v-24.6667h18.5v24.6667H164z M305.8333,287.5476
		l-12.0165,36.0518c-0.2097,0.6288-0.3167,1.2873-0.3168,1.9502v92.5h-74v-74H238c3.4057,0,6.1667-2.7609,6.1667-6.1667
		c0-3.4057-2.7609-6.1667-6.1667-6.1667h-18.5v-6.1667c0-1.2176-0.3605-2.4079-1.036-3.421l-23.6307-35.446V226.883
		c0.0038-3.4042,2.7625-6.1628,6.1667-6.1667h30.8333v6.1667c-0.0038,3.4042-2.7625,6.1628-6.1667,6.1667h-12.3333
		c-3.4057,0-6.1667,2.7609-6.1667,6.1667v24.6667c0,3.4058,2.7609,6.1667,6.1667,6.1667
		c17.0209,0.0191,30.8142,13.8125,30.8333,30.8333c0,3.4058,2.7609,6.1667,6.1667,6.1667c3.4058,0,6.1667-2.7609,6.1667-6.1667
		c0.0048-11.6104-4.6827-22.7301-12.9978-30.8333h62.3311V287.5476z M317.106,257.7163c0.7028-1.98,1.0615-4.0657,1.0607-6.1667
		v-18.5h18.5v24.6667H317.106z M373.6667,337.883c-0.0038,3.4042-2.7625,6.1628-6.1667,6.1667h-12.3333
		c-3.4042-0.0038-6.1628-2.7625-6.1667-6.1667v-185c0.0038-3.4042,2.7625-6.1628,6.1667-6.1667H367.5
		c3.4042,0.0038,6.1628,2.7625,6.1667,6.1667V337.883z M398.3333,294.7163c0,3.4058-2.7609,6.1667-6.1667,6.1667
		c-3.4057,0-6.1667-2.7609-6.1667-6.1667v-98.6667c0-3.4058,2.7609-6.1667,6.1667-6.1667c3.4058,0,6.1667,2.7609,6.1667,6.1667
		V294.7163z M423,251.5497c-0.0038,3.4042-2.7625,6.1628-6.1667,6.1667h-6.1667v-24.6667h6.1667
		c3.4042,0.0038,6.1628,2.7625,6.1667,6.1667V251.5497z" id="id_111" style="fill: rgb(37, 45, 51);"></path>
</g>
<g id="Layer_3">
<path class="st3" d="M152,356.383h-21.2128c-6.6,0-12-5.4-12-12V162.4468c0-6.6,5.4-12,12-12H152c6.6,0,12,5.4,12,12V344.383
		C164,350.983,158.6,356.383,152,356.383z" id="id_112" style="fill: rgb(21, 24, 26);"></path>
<path class="st3" d="M103.7482,315.3559h-6.8298c-4.9051,0-8.9184-4.0133-8.9184-8.9185V199.4074
		c0-4.9051,4.0133-8.9184,8.9184-8.9184h6.8298c4.9051,0,8.9184,4.0133,8.9184,8.9184v107.0301
		C112.6667,311.3426,108.6534,315.3559,103.7482,315.3559z" id="id_113" style="fill: rgb(23, 26, 28);"></path>
<path class="st3" d="M74.3936,273.3493h-5.4539c-5.2835,0-9.6064-4.3229-9.6064-9.6064v-23.6035
		c0-5.2835,4.3229-9.6064,9.6064-9.6064h5.4539c5.2835,0,9.6064,4.3229,9.6064,9.6064v23.6035
		C84,269.0264,79.6771,273.3493,74.3936,273.3493z" id="id_114" style="fill: rgb(22, 24, 26);"></path>
<path class="st3" d="M347.3333,356.383h21.2128c6.6,0,12-5.4,12-12V162.4468c0-6.6-5.4-12-12-12h-21.2128c-6.6,0-12,5.4-12,12
		V344.383C335.3333,350.983,340.7333,356.383,347.3333,356.383z" id="id_115" style="fill: rgb(24, 26, 28);"></path>
<path class="st3" d="M395.5851,315.3559h6.8298c4.9051,0,8.9184-4.0133,8.9184-8.9185V199.4074
		c0-4.9051-4.0133-8.9184-8.9184-8.9184h-6.8298c-4.9051,0-8.9184,4.0133-8.9184,8.9184v107.0301
		C386.6667,311.3426,390.68,315.3559,395.5851,315.3559z" id="id_116" style="fill: rgb(23, 25, 26);"></path>
<path class="st3" d="M424.9397,273.3493h5.4539c5.2835,0,9.6064-4.3229,9.6064-9.6064v-23.6035
		c0-5.2835-4.3229-9.6064-9.6064-9.6064h-5.4539c-5.2835,0-9.6064,4.3229-9.6064,9.6064v23.6035
		C415.3333,269.0264,419.6562,273.3493,424.9397,273.3493z" id="id_117" style="fill: rgb(25, 27, 28);"></path>
<path class="st4" d="M321.9261,266.8723H178.0739c-1.913,0-3.4781-1.5652-3.4781-3.4781v-29.383
		c0-1.913,1.5652-3.4781,3.4781-3.4781h143.8522c1.913,0,3.4781,1.5652,3.4781,3.4781v29.383
		C325.4043,265.3072,323.8391,266.8723,321.9261,266.8723z" id="id_118" style="stroke: rgb(22, 25, 28); fill: rgb(20, 23, 26);"></path>
</g>
</svg>